<svg aria-hidden="true" style="position:absolute;width:0;height:0;overflow:hidden" xmlns="http://www.w3.org/2000/svg">
    <defs>
        <symbol id="icon-close" viewBox="0 0 128 128">
            <path d="M64,0a64,64,0,1,0,64,64A64.07,64.07,0,0,0,64,0Zm0,122a58,58,0,1,1,58-58A58.07,58.07,0,0,1,64,122Z"/>
            <path d="M92.12,35.79a3,3,0,0,0-4.24,0L64,59.75l-23.87-24A3,3,0,0,0,35.88,40L59.76,64,35.88,88a3,3,0,0,0,4.25,4.24L64,68.25l23.88,24A3,3,0,0,0,92.13,88L68.24,64,92.13,40A3,3,0,0,0,92.12,35.79Z"/>
        </symbol>
        <symbol id="icon-in_archive" viewBox="0 0 32 32">
            <path d="m28.941 7.056-3.999-3.999a1.326 1.326 0 0 0-.941-.391H7.998a1.32 1.32 0 0 0-.941.391L3.058 7.056a1.325 1.325 0 0 0-.392.942V25.333A2.67 2.67 0 0 0 5.333 28h21.333a2.67 2.67 0 0 0 2.667-2.667V7.997c0-.368-.15-.701-.392-.941zM8.552 5.333h14.896l1.333 1.333H7.218l1.333-1.333zM16 24l-6.667-6.667h4v-4h5.333v4h4L15.999 24z"/>
        </symbol>
        <symbol id="icon-out_archive" viewBox="0 0 32 32">
            <path d="m28.941 7.056-3.999-3.999a1.326 1.326 0 0 0-.941-.391H7.997c-.368 0-.7.149-.941.391L3.057 7.056c-.242.24-.392.573-.392.941v17.336A2.67 2.67 0 0 0 5.332 28h21.333a2.67 2.67 0 0 0 2.667-2.667V7.997c0-.368-.15-.701-.392-.941zM8.552 5.333h14.896l1.333 1.333H7.218l1.333-1.333zm10.115 13.334v4h-5.333v-4h-4L16.001 12l6.667 6.667h-4z"/>
        </symbol>
        <symbol id="icon-delete" viewBox="0 0 32 32">
            <path d="M22.213 10.464v17.051c0 .794-.654 1.448-1.448 1.448H9.53a1.455 1.455 0 0 1-1.448-1.448V10.464h14.131zm-3.667 1.892v14.669h.841V12.356h-.841zm-3.807 0v14.669h.841V12.356h-.841zm-3.808 0v14.669h.841V12.356h-.841zm.935-5.839V5.302c0-.771.607-1.378 1.378-1.378h3.831c.771 0 1.378.607 1.378 1.378v1.215h4.228c.794 0 1.448.654 1.448 1.448v1.004H6.19V7.941c0-.794.654-1.448 1.448-1.448h4.228v.023zm1.378-1.659a.418.418 0 0 0-.42.42v1.215h4.695V5.278a.418.418 0 0 0-.42-.42h-3.854z"/>
        </symbol>
        <symbol id="icon-idea" viewBox="0 0 32 32">
            <path d="m21.67 3.683.856-1.439c.194-.349.622-.468.971-.273s.468.622.273.971l-.856 1.439c-.115.234-.388.349-.622.349-.115 0-.234-.04-.349-.079a.698.698 0 0 1-.273-.968zm-12.585.701c.115.234.388.349.622.349.115 0 .234-.04.349-.079a.706.706 0 0 0 .273-.971l-.856-1.439c-.194-.349-.622-.468-.971-.273s-.468.622-.273.971l.856 1.442zm6.913-1.32a.694.694 0 0 0 .698-.698V.697c0-.388-.309-.698-.698-.698S15.3.308 15.3.697v1.669c-.04.385.27.698.698.698zM3.413 14.211H1.744c-.388 0-.698.309-.698.698s.309.698.698.698h1.669c.388 0 .698-.309.698-.698s-.309-.698-.698-.698zm26.843 0h-1.669c-.388 0-.698.309-.698.698s.309.698.698.698h1.669c.388 0 .698-.309.698-.698s-.309-.698-.698-.698zm-1.284-6.759a.706.706 0 0 0-.971-.273l-1.439.856a.706.706 0 0 0-.273.971c.115.234.388.349.622.349.115 0 .234-.04.349-.079l1.439-.856a.699.699 0 0 0 .273-.968zm-3.806 7.381c0 1.593-.428 3.147-1.205 4.546a.678.678 0 0 1-.155.273l-.079.115c-.309.468-.622.932-1.011 1.32-1.36 1.903-2.057 3.536-2.021 4.582v.04c0 .079.04.194.04.309v3.341a2.644 2.644 0 0 1-2.64 2.64h-4.309a2.644 2.644 0 0 1-2.64-2.64v-3.69c.04-1.011-.662-2.604-1.942-4.467-.428-.468-.856-.971-1.165-1.554-.04-.079-.079-.115-.115-.194a9.128 9.128 0 0 1-1.244-4.582c0-5.089 4.158-9.244 9.244-9.244 5.086-.04 9.243 4.115 9.243 9.204zM19.3 26.407h-6.719v1.32H19.3v-1.32zm0 3.032v-.273h-6.719v.273c.079.622.583 1.086 1.205 1.086h4.312c.619 0 1.126-.464 1.201-1.086zm4.427-14.606a7.81 7.81 0 0 0-15.617 0c0 1.399.388 2.759 1.086 3.964v.04c.326.527.673.984 1.057 1.407l-.007-.008.079.079c1.28 1.827 2.021 3.381 2.216 4.661h6.798c.234-1.593 1.32-3.417 2.291-4.776 0-.04.04-.04.079-.079.349-.349.662-.777.892-1.205 0-.04.04-.04.04-.079s.04-.04.04-.079c.698-1.165 1.047-2.525 1.047-3.924zM5.435 8.035l-1.439-.856a.704.704 0 0 0-.971.273.704.704 0 0 0 .273.971l1.439.856c.115.079.234.079.349.079.234 0 .504-.115.622-.349a.714.714 0 0 0-.273-.975z"/>
        </symbol>
        <symbol id="icon-edit" viewBox="0 0 32 32">
            <path d="m27.868 6.818-2.184-2.181a1.152 1.152 0 0 0-.817-.338h-.002c-.296 0-.592.112-.817.338l-1.747 1.742 3.82 3.813 1.747-1.742a1.15 1.15 0 0 0 0-1.632zm-16.907 10.88 3.82 3.814 10.522-10.503-3.82-3.813zm-.825.816L9.32 23.14l4.636-.813z"/>
            <path d="M20.697 25.201H6.294V10.798h10.164l2.505-2.5H5.41a1.622 1.622 0 0 0-1.617 1.617v16.17a1.622 1.622 0 0 0 1.617 1.617h16.17a1.622 1.622 0 0 0 1.617-1.617V14.524l-2.5 2.495V25.2z"/>
        </symbol>
        <symbol id="icon-quote" viewBox="0 0 32 32">
            <path d="M18 18V4h14v14.2c0 9.6-9 10.8-9 10.8l-1.2-2.8s4-.6 4.8-3.8c.8-2.4-.8-4.4-.8-4.4H18zM0 18V4h14v14.2C14 27.8 5 29 5 29l-1.2-2.8s4-.6 4.8-3.8c.8-2.4-.8-4.4-.8-4.4H0z"/>
        </symbol>
        <symbol id="icon-random_thought" viewBox="0 0 32 32">
            <path d="M29.29 20.91c-.254.031-.51.055-.759.111-.379.084-.427.164-.288.534.092.246.213.489.358.708.108.165.132.308.058.482-.039.094-.059.196-.095.292-.102.268-.1.49.084.759.338.501.281 1.065.006 1.579-.743 1.391-1.904 2.207-3.487 2.345-.722.063-1.455.006-2.182.026-1.5.041-2.137.841-1.846 2.313.055.279.138.553.22.874H6.414c.057-.369.101-.719.165-1.066.318-1.719.624-3.441.969-5.154a2.256 2.256 0 0 0-.334-1.769l.005.008c-.594-.88-1.12-1.6-1.668-2.301l.068.091c-.836-1.1-1.723-2.162-2.523-3.289-.713-1.001-1.234-2.122-1.301-3.366-.049-.926.007-1.862.097-2.786.174-1.809.667-3.534 1.557-5.131 1.42-2.55 3.585-4.204 6.336-5.087C12.85.1 15.977-.144 19.13.597c2.86.671 5.126 2.268 6.864 4.618.42.569.807 1.159 1.199 1.748.602.906.764 1.941.774 2.99a40.219 40.219 0 0 1-.134 3.311c-.049.645.004 1.244.352 1.798.539.858 1.086 1.711 1.62 2.571.231.373.449.756.66 1.141.67 1.233-.196 2.018-1.174 2.139zm.357-1.546a14.725 14.725 0 0 0-.695-1.242l.038.064c-.577-.942-1.179-1.868-1.749-2.815a2.976 2.976 0 0 1-.409-1.87l-.001.013c.063-.713.137-1.429.14-2.144l.001-.183c0-.83-.04-1.65-.12-2.459l.008.103c-.097-.98-.737-1.714-1.264-2.491-1.682-2.481-3.926-4.192-6.894-4.834-3.066-.662-6.086-.38-9.025.657-2.337.823-4.16 2.308-5.372 4.492-.811 1.461-1.242 3.042-1.435 4.693-.048.417-.06.837-.107 1.254-.181 1.604.262 3.05 1.177 4.346.695.986 1.477 1.911 2.202 2.876.677.9 1.362 1.793 1.982 2.731.388.587.571 1.278.446 1.995-.215 1.23-.459 2.453-.687 3.68-.106.566-.203 1.135-.306 1.718H20.11c0-.273-.01-.508.002-.742.063-1.21.761-2.078 1.947-2.327.506-.107 1.038-.091 1.558-.117.613-.032 1.236.006 1.84-.084 1.031-.153 1.761-.785 2.279-1.662.239-.404.199-.759-.123-.916-.331-.16-.311-.35-.212-.63.155-.436.273-.833.028-1.333-.594-1.214-.102-1.996 1.253-2.149.244-.027.49-.057.726-.121.294-.081.373-.238.24-.505zm-6.756-9.069c-.114.457-.191.527-.661.581-.427.049-.857.086-1.316.133.026.41.048.805.074 1.199.028.43-.034.542-.422.715-.542.244-1.084.484-1.628.722-.406.18-.533.148-.843-.161-.31-.31-.63-.608-.965-.93-.292.261-.601.528-.9.805-.235.217-.474.241-.756.086-.538-.298-1.084-.578-1.626-.869-.362-.193-.433-.338-.374-.746l.191-1.324c-.42-.076-.81-.159-1.202-.215-.331-.047-.51-.213-.564-.544-.105-.635-.225-1.269-.34-1.903-.053-.294.075-.49.324-.631.401-.225.799-.457 1.225-.7-.204-.384-.379-.742-.581-1.086-.165-.279-.142-.518.074-.754.434-.478.865-.958 1.296-1.439.196-.219.426-.262.694-.153.358.145.718.287 1.099.438.123-.334.247-.645.352-.961.102-.306.31-.442.624-.441.626.002 1.253.006 1.878.001.334-.002.534.148.64.462.142.426.303.844.465 1.29.399-.127.78-.236 1.156-.369.324-.114.567-.055.779.228.361.485.743.953 1.114 1.43.262.338.266.486.031.857l-.705 1.121c.332.224.658.447.988.666.357.238.41.363.31.768-.142.575-.286 1.151-.431 1.726zm-1.62-2.477a.733.733 0 0 1-.223-.98l-.002.003c.065-.116.143-.224.212-.337.174-.289.491-.585.48-.865-.012-.279-.356-.545-.554-.816-.042-.058-.076-.134-.134-.166-.091-.049-.21-.113-.298-.091-.336.087-.663.209-.996.311-.437.134-.795-.039-.958-.466-.142-.373-.265-.753-.418-1.12a.357.357 0 0 0-.255-.177h-.002a7.887 7.887 0 0 0-1.037-.001l.023-.001a.4.4 0 0 0-.277.196l-.001.002c-.135.297-.231.61-.347.917-.154.41-.378.514-.79.357-.354-.134-.7-.292-1.058-.415a.353.353 0 0 0-.305.07l.001-.001c-.241.235-.45.503-.689.743-.127.128-.118.231-.036.375.164.283.314.574.465.865.215.416.103.81-.302 1.047-.318.188-.635.377-.961.546-.172.089-.238.186-.188.385.07.287.129.581.154.875.021.233.134.309.343.335.294.038.586.096.88.145.486.081.746.437.674.921-.055.364-.102.73-.162 1.093-.027.161.009.263.169.341.295.14.586.295.866.464.156.092.256.055.374-.058.23-.219.469-.43.709-.638.396-.342.774-.329 1.136.041.266.27.519.553.795.812a.354.354 0 0 0 .302.065 8.388 8.388 0 0 0 1.001-.446l-.047.023a.358.358 0 0 0 .161-.267v-.001c-.001-.337-.042-.674-.058-1.012-.023-.511.241-.804.752-.852.368-.034.736-.065 1.1-.122.091-.015.217-.111.242-.194.117-.39.204-.789.305-1.2-.353-.239-.703-.469-1.046-.708zm-3.769 2.897h-.021a2.79 2.79 0 0 1-2.789-2.789V7.91v.001c-.001-1.493 1.257-2.751 2.764-2.766h.021c1.546 0 2.8 1.251 2.805 2.796a2.793 2.793 0 0 1-2.78 2.773h-.001zm-.016-4.576h-.009c-.989 0-1.792.801-1.794 1.789 0 .993.807 1.807 1.79 1.806h.015c.999 0 1.809-.809 1.809-1.808.005-.978-.811-1.785-1.81-1.787zm-5.194 4.51c.287.373.577.745.873 1.111.199.247.22.49.038.757-.167.244-.315.5-.487.775.238.162.463.318.69.47.24.161.335.366.256.657-.124.454-.231.912-.34 1.37-.073.309-.26.473-.577.497-.286.022-.571.054-.903.087.011.257.02.507.036.757.028.421-.046.548-.421.715-.401.18-.804.359-1.204.543-.298.137-.545.096-.774-.153-.199-.215-.428-.406-.66-.623l-.598.533c-.214.192-.436.234-.702.084-.25-.149-.659-.37-1.073-.581l-.175-.081c-.26-.134-.375-.335-.336-.624l.127-.962-.681-.113c-.463-.075-.594-.208-.668-.663-.068-.412-.132-.827-.219-1.237-.066-.318.033-.538.309-.694.265-.149.527-.305.809-.469-.137-.257-.256-.492-.384-.722-.149-.268-.113-.503.094-.729.32-.346.633-.698.945-1.051.194-.218.423-.268.693-.16l.711.278c.079-.219.15-.399.209-.583.095-.288.279-.436.592-.431.482.007.965.005 1.446 0 .295-.002.484.127.58.405.1.289.208.575.322.887.276-.086.538-.161.794-.251.279-.097.498-.033.678.201zm-1.074.961c-.097.053-.213.07-.321.105-.434.135-.768-.026-.93-.453-.058-.153-.124-.304-.159-.463-.069-.32-.241-.437-.577-.416-.497.03-.498.006-.673.486l-.084.23c-.169.454-.384.555-.826.384-.21-.081-.421-.161-.624-.257-.146-.069-.234-.033-.341.082-.47.508-.474.505-.154 1.116l.073.135c.198.389.102.747-.271.975-.219.133-.45.245-.663.385-.068.046-.139.155-.134.23.053.741.058.741.783.873.657.119.817.338.738 1.018-.097.83-.097.83.667 1.17.009.004.021.002.053.006l.512-.46c.438-.398.788-.382 1.193.054.596.642.596.642 1.397.201-.006-.134-.01-.276-.02-.418s-.031-.284-.036-.427c-.014-.396.233-.681.629-.731.244-.031.487-.064.734-.079.183-.011.257-.09.298-.271.148-.652.155-.651-.404-1.028-.068-.046-.137-.091-.201-.142a.664.664 0 0 1-.182-.854l-.002.003c.094-.17.186-.346.311-.492.236-.273.188-.474-.031-.756-.228-.293-.428-.39-.756-.208zm-2.141 4.564a2.241 2.241 0 0 1-2.211-2.241v-.04.002A2.235 2.235 0 0 1 9.1 11.698h.029-.001c1.222.012 2.228 1.031 2.217 2.247a2.248 2.248 0 0 1-2.247 2.229h-.021.001zm.026-3.492c-.684 0-1.25.566-1.25 1.252a1.257 1.257 0 0 0 1.248 1.255 1.27 1.27 0 0 0 1.257-1.252v-.001a1.265 1.265 0 0 0-1.254-1.254h-.001z"/>
        </symbol>
        <symbol id="icon-task" viewBox="0 0 32 32">
            <path  d="M9.6 25.6c-1.76 0-3.2 1.44-3.2 3.2S7.84 32 9.6 32s3.2-1.44 3.2-3.2-1.44-3.2-3.2-3.2zM0 0v3.2h3.2l5.76 12.16-2.24 3.84c-.16.48-.32 1.12-.32 1.6 0 1.76 1.44 3.2 3.2 3.2h19.2v-3.2H10.24c-.16 0-.32-.16-.32-.32v-.16l1.44-2.72H23.2c1.28 0 2.24-.64 2.72-1.6l5.76-10.4c.32-.32.32-.48.32-.8 0-.96-.64-1.6-1.6-1.6H6.72L5.28 0H0zm25.6 25.6c-1.76 0-3.2 1.44-3.2 3.2s1.44 3.2 3.2 3.2 3.2-1.44 3.2-3.2-1.44-3.2-3.2-3.2z"/>
        </symbol>
    </defs>
</svg>